{
    "asset" : {
        "generator" : "Khronos glTF Blender I/O v1.8.19",
        "version" : "2.0"
    },
    "scene" : 0,
    "scenes" : [
        {
            "name" : "Scene",
            "nodes" : [
                0,
                1
            ]
        }
    ],
    "nodes" : [
        {
            "mesh" : 0,
            "name" : "Cube",
            "rotation" : [
                -0.3064514100551605,
                0.939041793346405,
                -0.04835012927651405,
                0.14815658330917358
            ],
            "scale" : [
                0.800000011920929,
                0.800000011920929,
                0.800000011920929
            ],
            "translation" : [
                -0.884137749671936,
                1.914520502090454,
                -0.3818624019622803
            ]
        },
        {
            "mesh" : 1,
            "name" : "logo",
            "rotation" : [
                -0.3116918206214905,
                -0.5428631901741028,
                0.22712808847427368,
                -0.7460299730300903
            ],
            "scale" : [
                11.695135116577148,
                20.67738914489746,
                11.695128440856934
            ],
            "translation" : [
                0.46171754598617554,
                0.296808660030365,
                -0.07788550853729248
            ]
        }
    ],
    "materials" : [
        {
            "alphaMode" : "BLEND",
            "doubleSided" : true,
            "name" : "Metalic texturing ",
            "pbrMetallicRoughness" : {
                "baseColorFactor" : [
                    0.2790050804615021,
                    0.007643463090062141,
                    0.565026044845581,
                    1
                ],
                "metallicFactor" : 0.8727272748947144
            }
        },
        {
            "doubleSided" : true,
            "name" : "SVGMat.003",
            "pbrMetallicRoughness" : {
                "baseColorFactor" : [
                    0,
                    0,
                    0,
                    1
                ],
                "metallicFactor" : 0,
                "roughnessFactor" : 0.4000000059604645
            }
        }
    ],
    "meshes" : [
        {
            "name" : "Cube",
            "primitives" : [
                {
                    "attributes" : {
                        "POSITION" : 0,
                        "NORMAL" : 1,
                        "TEXCOORD_0" : 2
                    },
                    "indices" : 3,
                    "material" : 0
                }
            ]
        },
        {
            "name" : "Curve.026",
            "primitives" : [
                {
                    "attributes" : {
                        "POSITION" : 4,
                        "NORMAL" : 5,
                        "TEXCOORD_0" : 6
                    },
                    "indices" : 7,
                    "material" : 1
                }
            ]
        }
    ],
    "accessors" : [
        {
            "bufferView" : 0,
            "componentType" : 5126,
            "count" : 88,
            "max" : [
                0.3054714798927307,
                -1.190436840057373,
                1.1913459300994873
            ],
            "min" : [
                -0.18436992168426514,
                -2.729308843612671,
                -1.2235921621322632
            ],
            "type" : "VEC3"
        },
        {
            "bufferView" : 1,
            "componentType" : 5126,
            "count" : 88,
            "type" : "VEC3"
        },
        {
            "bufferView" : 2,
            "componentType" : 5126,
            "count" : 88,
            "type" : "VEC2"
        },
        {
            "bufferView" : 3,
            "componentType" : 5123,
            "count" : 183,
            "type" : "SCALAR"
        },
        {
            "bufferView" : 4,
            "componentType" : 5126,
            "count" : 5113,
            "max" : [
                0.05245765298604965,
                1.8627237530211005e-09,
                1.2444052117643878e-05
            ],
            "min" : [
                3.2275224839395378e-06,
                0,
                -0.016716893762350082
            ],
            "type" : "VEC3"
        },
        {
            "bufferView" : 5,
            "componentType" : 5126,
            "count" : 5113,
            "type" : "VEC3"
        },
        {
            "bufferView" : 6,
            "componentType" : 5126,
            "count" : 5113,
            "type" : "VEC2"
        },
        {
            "bufferView" : 7,
            "componentType" : 5123,
            "count" : 5142,
            "type" : "SCALAR"
        }
    ],
    "bufferViews" : [
        {
            "buffer" : 0,
            "byteLength" : 1056,
            "byteOffset" : 0
        },
        {
            "buffer" : 0,
            "byteLength" : 1056,
            "byteOffset" : 1056
        },
        {
            "buffer" : 0,
            "byteLength" : 704,
            "byteOffset" : 2112
        },
        {
            "buffer" : 0,
            "byteLength" : 366,
            "byteOffset" : 2816
        },
        {
            "buffer" : 0,
            "byteLength" : 61356,
            "byteOffset" : 3184
        },
        {
            "buffer" : 0,
            "byteLength" : 61356,
            "byteOffset" : 64540
        },
        {
            "buffer" : 0,
            "byteLength" : 40904,
            "byteOffset" : 125896
        },
        {
            "buffer" : 0,
            "byteLength" : 10284,
            "byteOffset" : 166800
        }
    ],
    "buffers" : [
        {
            "byteLength" : 177084,
            "uri" : "data:application/octet-stream;base64,"
        }
    ]
}
